# Blender v2.91.2 OBJ File: ''
# www.blender.org
mtllib RoadCurve.mtl
o RoadCurve_Mesh
v -3.432492 0.735904 -0.429022
v -3.406924 0.735904 -0.429022
v -3.432492 0.732906 -0.429022
v -3.927830 0.735904 -0.947572
v -3.927830 0.735904 -0.922003
v -3.927830 0.732906 -0.922003
v -3.927830 0.732906 -0.947572
v -3.051492 0.735904 -0.429022
v -3.025924 0.735904 -0.429022
v -3.051369 0.732862 -0.429022
v -3.025924 0.732906 -0.429022
v -3.927830 0.735904 -1.328571
v -3.927830 0.735904 -1.303003
v -3.927830 0.732906 -1.303003
v -3.927830 0.732906 -1.328571
v -3.406806 0.732841 -0.429022
v -3.420436 0.735904 -0.546135
v -3.445334 0.735904 -0.540326
v -3.445334 0.732906 -0.540326
v -3.420436 0.732906 -0.546135
v -3.459655 0.735904 -0.655742
v -3.482612 0.735904 -0.644508
v -3.482612 0.732906 -0.644508
v -3.459655 0.732906 -0.655742
v -3.521170 0.735904 -0.752446
v -3.541104 0.735904 -0.736458
v -3.541104 0.732906 -0.736458
v -3.521170 0.732906 -0.752446
v -3.601840 0.735904 -0.833116
v -3.617827 0.735904 -0.813182
v -3.617827 0.732906 -0.813182
v -3.601840 0.732906 -0.833116
v -3.698543 0.735904 -0.894631
v -3.709778 0.735904 -0.871674
v -3.709778 0.732906 -0.871674
v -3.698543 0.732906 -0.894631
v -3.808150 0.735904 -0.933850
v -3.813960 0.735904 -0.908951
v -3.813960 0.732906 -0.908951
v -3.808150 0.732906 -0.933850
v -3.927455 0.735904 -0.947615
v -3.927455 0.735904 -0.922046
v -3.927455 0.732906 -0.922046
v -3.927455 0.732906 -0.947615
v -3.049509 0.735904 -0.633435
v -3.074407 0.735904 -0.627625
v -3.074407 0.732906 -0.627625
v -3.049509 0.732906 -0.633435
v -3.117413 0.735904 -0.823213
v -3.140370 0.735904 -0.811979
v -3.140370 0.732906 -0.811979
v -3.117413 0.732906 -0.823213
v -3.223932 0.735904 -0.990662
v -3.243865 0.735904 -0.974675
v -3.243865 0.732906 -0.974675
v -3.223932 0.732906 -0.990662
v -3.363623 0.735904 -1.130354
v -3.379611 0.735904 -1.110421
v -3.379611 0.732906 -1.110421
v -3.363623 0.732906 -1.130354
v -3.531073 0.735904 -1.236873
v -3.542306 0.735904 -1.213915
v -3.542306 0.732906 -1.213915
v -3.531073 0.732906 -1.236873
v -3.720850 0.735904 -1.304777
v -3.726660 0.735904 -1.279879
v -3.726660 0.732906 -1.279879
v -3.720850 0.732906 -1.304777
v -3.927455 0.735904 -1.328615
v -3.927455 0.735904 -1.303046
v -3.927455 0.732906 -1.303046
v -3.927455 0.732906 -1.328615
v -3.262343 0.732859 -0.583393
v -3.237445 0.732859 -0.589203
v -3.313773 0.732859 -0.727127
v -3.290815 0.732859 -0.738361
v -3.394466 0.732859 -0.853979
v -3.374532 0.732859 -0.869966
v -3.487049 0.732859 -0.946561
v -3.500307 0.732859 -0.959820
v -3.451128 0.732859 -0.946561
v -3.484320 0.732859 -0.979753
v -3.627158 0.732859 -1.040513
v -3.615925 0.732859 -1.063470
v -3.770892 0.732859 -1.091942
v -3.765082 0.732859 -1.116840
v -3.894870 0.732859 -1.106247
v -3.894870 0.732859 -1.131815
v -3.927455 0.732859 -1.135575
v -3.257396 0.732859 -0.584548
v -3.232500 0.732859 -0.590367
v -3.309210 0.732859 -0.729360
v -3.286252 0.732859 -0.740594
v -3.390504 0.732859 -0.857156
v -3.370569 0.732859 -0.873142
v -3.479909 0.732859 -0.946561
v -3.497130 0.732859 -0.963782
v -3.443988 0.732859 -0.946561
v -3.481144 0.732859 -0.983717
v -3.624926 0.732859 -1.045076
v -3.613692 0.732859 -1.068033
v -3.769737 0.732859 -1.096891
v -3.763918 0.732859 -1.121786
v -3.894870 0.732859 -1.111327
v -3.927455 0.732859 -1.115086
v -3.894870 0.732859 -1.136895
v -3.927643 0.732859 -1.140633
v -3.894870 0.732732 -0.946561
v -3.321374 0.732732 -0.946561
v -3.420436 0.732732 -0.546135
v -3.459655 0.732732 -0.655742
v -3.521170 0.732732 -0.752446
v -3.601840 0.732732 -0.833116
v -3.698544 0.732732 -0.894631
v -3.808151 0.732732 -0.933850
v -3.918323 0.732732 -0.946561
v -3.894870 0.732732 -0.943855
v -3.074407 0.732732 -0.627625
v -3.140370 0.732732 -0.811979
v -3.225981 0.732732 -0.946561
v -3.243865 0.732732 -0.974675
v -3.321374 0.732732 -1.052184
v -3.379611 0.732732 -1.110421
v -3.542306 0.732732 -1.213915
v -3.726660 0.732732 -1.279879
v -3.894870 0.732732 -1.299286
v -3.927642 0.732732 -1.303025
v -3.239509 0.732859 -0.429022
v -3.244532 0.732859 -0.429022
v -3.213943 0.732859 -0.429022
v -3.218964 0.732859 -0.429022
v -3.051492 0.732732 -0.429022
v -3.321374 0.732732 -0.429022
v -3.406924 0.732732 -0.429022
v -3.927642 0.732859 -1.109985
v -3.927830 0.732859 -1.115043
v -3.927830 0.732859 -1.135531
v -3.927642 0.732732 -0.947384
vt 0.573327 0.896550
vt 0.500000 0.905083
vt 0.500000 0.750000
vt 0.750000 0.750000
vt 0.750000 0.796439
vt 0.724613 0.822044
vt 0.653691 0.867548
vt 0.791584 0.750000
vt 0.783788 0.762361
vt 0.537803 0.744411
vt 0.500000 0.748810
vt 0.489776 0.750000
vt 0.585583 0.727168
vt 0.627739 0.700122
vt 0.662904 0.664653
vt 0.689721 0.622136
vt 0.706817 0.573945
vt 0.485461 0.750424
vt 0.485795 0.906736
vt 0.857659 0.609774
vt 0.828904 0.690828
vt 0.750000 0.522453
vt 0.867648 0.522453
vt 0.712707 0.522453
vt 0.680891 0.750000
vt 0.677779 0.750000
vt 0.718138 0.709294
vt 0.719865 0.710691
vt 0.765311 0.659443
vt 0.763321 0.658461
vt 0.786587 0.592880
vt 0.788743 0.593392
vt 0.726827 0.716323
vt 0.693438 0.750000
vt 0.696550 0.750000
vt 0.728555 0.717720
vt 0.616702 0.791308
vt 0.617675 0.793314
vt 0.554548 0.816096
vt 0.554045 0.813920
vt 0.673384 0.757571
vt 0.671999 0.755829
vt 0.500000 0.820209
vt 0.500000 0.822442
vt 0.485795 0.824095
vt 0.485632 0.821843
vt 0.755303 0.654503
vt 0.753314 0.653522
vt 0.775733 0.590326
vt 0.777889 0.590834
vt 0.621599 0.801401
vt 0.556578 0.824867
vt 0.678968 0.764594
vt 0.622572 0.803408
vt 0.557085 0.827041
vt 0.680353 0.766336
vt 0.485795 0.833104
vt 0.500000 0.831451
vt 0.500000 0.833684
vt 0.485795 0.835337
vt 0.485632 0.824076
vt 0.485632 0.833085
vt 0.783497 0.522453
vt 0.785669 0.522401
vt 0.794643 0.522453
vt 0.796819 0.522341
vt 0.410954 0.420613
vt 0.390782 0.420613
vt 0.390782 0.411653
vt 0.410954 0.411132
vt 0.610807 0.420613
vt 0.590622 0.420613
vt 0.590622 0.411653
vt 0.610807 0.411653
vt 0.310020 0.420613
vt 0.289834 0.420613
vt 0.289834 0.411653
vt 0.310020 0.411653
vt 0.691361 0.411653
vt 0.711533 0.411653
vt 0.711533 0.420613
vt 0.691361 0.420613
vt -1.986158 27.043369
vt -0.518538 22.941692
vt 0.461706 23.170425
vt -1.082331 27.485661
vt -1.986158 27.043369
vt -0.518538 22.941692
vt -1.082331 27.485661
vt 0.461706 23.170425
vt -4.288991 30.663460
vt -3.504205 31.292885
vt -4.288991 30.663460
vt -3.504205 31.292885
vt -7.309598 33.684074
vt -6.680175 34.468864
vt -7.309598 33.684074
vt -6.680175 34.468864
vt -10.929697 35.986900
vt -10.487398 36.890724
vt -10.929697 35.986900
vt -10.487398 36.890724
vt -15.031370 37.454521
vt -14.802637 38.434765
vt -15.031370 37.454521
vt -14.802637 38.434765
vt -19.499681 37.970062
vt -19.499680 38.976700
vt -19.499681 37.970062
vt -19.499680 38.976700
vt -19.514412 37.968361
vt -19.514412 38.975002
vt -19.514412 38.975002
vt 11.487915 33.636719
vt 14.084911 26.378696
vt 15.065151 26.607437
vt 12.391747 34.079010
vt 11.487915 33.636719
vt 14.084911 26.378696
vt 12.391747 34.079010
vt 15.065151 26.607437
vt 7.413324 40.042053
vt 8.198111 40.671486
vt 7.413324 40.042053
vt 8.198111 40.671486
vt 2.068995 45.386391
vt 2.698423 46.171173
vt 2.068995 45.386391
vt 2.698423 46.171173
vt -4.336338 49.460968
vt -3.894060 50.364807
vt -4.336338 49.460968
vt -3.894060 50.364807
vt -11.594369 52.057968
vt -11.365626 53.038208
vt -11.594369 52.057968
vt -11.365626 53.038208
vt -19.499681 52.970062
vt -19.499681 53.976700
vt -19.499681 52.970062
vt -19.499681 53.976700
vt -19.514412 52.968365
vt -19.514412 53.974998
vt -19.514412 53.974998
vt -0.012950 18.559654
vt -0.012950 18.559654
vt 0.993683 18.559656
vt 0.993683 18.559654
vt 14.987048 18.559654
vt 14.987048 18.559654
vt 15.993686 18.559654
vt 15.993686 18.559654
vt -19.514412 37.968361
vt -19.514412 52.968365
vn 0.0000 1.0000 0.0000
vn 0.0000 1.0000 -0.0002
vn -0.0000 0.0000 1.0000
vn -1.0000 0.0001 0.0000
vn -1.0000 0.0000 0.0000
vn -0.8982 0.0000 0.4395
vn -0.9738 0.0000 0.2272
vn 0.0000 -1.0000 0.0000
vn -0.0001 -1.0000 -0.0003
vn -0.0002 -1.0000 -0.0002
vn 0.8982 0.0000 -0.4395
vn 0.9738 0.0000 -0.2272
vn 0.9738 0.0003 -0.2272
vn -0.7801 0.0000 0.6257
vn 0.7801 0.0000 -0.6257
vn -0.6257 0.0000 0.7801
vn 0.6257 0.0000 -0.7801
vn -0.4395 0.0000 0.8982
vn 0.4395 0.0000 -0.8982
vn -0.2272 0.0000 0.9738
vn 0.2272 0.0000 -0.9738
vn -0.0000 0.0000 -1.0000
vn 0.1147 0.0000 0.9934
vn -0.1147 0.0000 -0.9934
vn -0.9738 -0.0002 0.2272
vn 0.0001 -1.0000 -0.0000
vn 0.0004 0.0000 1.0000
vn -0.9934 0.0000 0.1146
vn 0.9926 0.0376 -0.1155
vn 0.9926 0.0383 -0.1155
vn -0.0022 -1.0000 0.0002
vn -0.0025 -1.0000 0.0003
vn -0.9925 -0.0400 0.1151
vn -0.9925 -0.0403 0.1151
vn 0.9934 0.0000 -0.1146
vn 0.0016 -1.0000 -0.0004
vn 0.0017 -1.0000 -0.0004
vn 0.1155 0.0000 0.9933
usemtl AsphaltMaterial
s 1
f 125/1/1 126/2/1 108/3/1
f 109/4/1 122/5/1 123/6/1
f 108/3/1 109/4/1 123/6/1
f 108/3/1 123/6/1 124/7/1
f 125/1/1 108/3/1 124/7/1
f 109/4/1 120/8/1 121/9/1
f 121/9/1 122/5/1 109/4/1
f 115/10/1 109/4/1 108/3/1
f 108/3/1 117/11/1 115/10/1
f 117/11/1 108/3/1 116/12/2
f 115/10/1 114/13/1 109/4/1
f 114/13/1 113/14/1 109/4/1
f 113/14/1 112/15/1 109/4/1
f 112/15/1 111/16/1 109/4/1
f 111/16/1 110/17/1 109/4/1
f 138/18/1 116/12/2 108/3/1
f 138/18/1 108/3/1 126/2/1
f 138/18/1 126/2/1 127/19/1
f 118/20/1 119/21/1 120/8/1
f 118/20/1 120/8/1 109/4/1
f 118/20/1 109/4/1 133/22/1
f 132/23/1 118/20/1 133/22/1
f 133/22/1 109/4/1 110/17/1
f 110/17/1 134/24/1 133/22/1
usemtl WhiteLineMaterial
f 96/25/1 79/26/1 77/27/1
f 77/27/1 94/28/1 96/25/1
f 93/29/1 76/30/1 74/31/1
f 74/31/1 91/32/1 93/29/1
f 94/28/1 78/33/1 81/34/1
f 81/34/1 96/25/1 94/28/1
f 98/35/1 81/34/1 78/33/1
f 78/33/1 95/36/1 98/35/1
f 83/37/1 100/38/1 102/39/1
f 102/39/1 85/40/1 83/37/1
f 79/26/1 96/25/1 97/41/1
f 97/41/1 80/42/1 79/26/1
f 87/43/1 104/44/1 105/45/1
f 105/45/1 135/46/1 87/43/1
f 92/47/1 75/48/1 73/49/1
f 73/49/1 90/50/1 92/47/1
f 92/47/1 90/50/1 74/31/1
f 74/31/1 76/30/1 92/47/1
f 100/38/1 84/51/1 86/52/1
f 86/52/1 102/39/1 100/38/1
f 97/41/1 96/25/1 81/34/1
f 81/34/1 82/53/1 97/41/1
f 84/51/1 101/54/1 103/55/1
f 103/55/1 86/52/1 84/51/1
f 82/53/1 81/34/1 98/35/1
f 98/35/1 99/56/1 82/53/1
f 89/57/1 88/58/1 106/59/1
f 106/59/1 107/60/1 89/57/1
f 136/61/1 89/57/1 137/62/1
f 105/45/1 104/44/1 88/58/1
f 88/58/1 89/57/1 105/45/1
f 90/50/1 73/49/1 129/63/1
f 129/63/1 128/64/1 90/50/1
f 74/31/1 90/50/1 128/64/1
f 128/64/1 131/65/1 74/31/1
f 91/32/1 74/31/1 131/65/1
f 131/65/1 130/66/1 91/32/1
f 136/61/1 105/45/1 89/57/1
f 135/46/1 105/45/1 136/61/1
f 137/62/1 89/57/1 107/60/1
usemtl YellowLineMaterial
f 2/67/3 1/68/3 3/69/3
f 3/69/3 16/70/3 2/67/3
f 5/71/4 4/72/5 7/73/5
f 7/73/5 6/74/4 5/71/4
f 13/75/5 12/76/5 15/77/5
f 15/77/5 14/78/5 13/75/5
f 10/79/3 11/80/3 9/81/3
f 9/81/3 8/82/3 10/79/3
f 22/83/1 18/84/1 17/85/1
f 17/85/1 21/86/1 22/83/1
f 23/87/6 19/88/7 18/84/7
f 18/84/7 22/83/6 23/87/6
f 24/89/8 20/90/9 19/88/10
f 19/88/10 23/87/8 24/89/8
f 21/86/11 17/85/12 20/90/13
f 20/90/13 24/89/11 21/86/11
f 26/91/1 22/83/1 21/86/1
f 21/86/1 25/92/1 26/91/1
f 27/93/14 23/87/6 22/83/6
f 22/83/6 26/91/14 27/93/14
f 28/94/8 24/89/8 23/87/8
f 23/87/8 27/93/8 28/94/8
f 25/92/15 21/86/11 24/89/11
f 24/89/11 28/94/15 25/92/15
f 30/95/1 26/91/1 25/92/1
f 25/92/1 29/96/1 30/95/1
f 31/97/16 27/93/14 26/91/14
f 26/91/14 30/95/16 31/97/16
f 32/98/8 28/94/8 27/93/8
f 27/93/8 31/97/8 32/98/8
f 29/96/17 25/92/15 28/94/15
f 28/94/15 32/98/17 29/96/17
f 34/99/1 30/95/1 29/96/1
f 29/96/1 33/100/1 34/99/1
f 35/101/18 31/97/16 30/95/16
f 30/95/16 34/99/18 35/101/18
f 36/102/8 32/98/8 31/97/8
f 31/97/8 35/101/8 36/102/8
f 33/100/19 29/96/17 32/98/17
f 32/98/17 36/102/19 33/100/19
f 38/103/1 34/99/1 33/100/1
f 33/100/1 37/104/1 38/103/1
f 39/105/20 35/101/18 34/99/18
f 34/99/18 38/103/20 39/105/20
f 40/106/8 36/102/8 35/101/8
f 35/101/8 39/105/8 40/106/8
f 37/104/21 33/100/19 36/102/19
f 36/102/19 40/106/21 37/104/21
f 42/107/1 38/103/1 37/104/1
f 37/104/1 41/108/1 42/107/1
f 43/109/3 39/105/20 38/103/20
f 38/103/20 42/107/3 43/109/3
f 44/110/8 40/106/8 39/105/8
f 39/105/8 43/109/8 44/110/8
f 41/108/22 37/104/21 40/106/21
f 40/106/21 44/110/22 41/108/22
f 42/107/3 5/111/23 43/109/3
f 44/110/22 7/112/24 4/113/24
f 50/114/1 46/115/1 45/116/1
f 45/116/1 49/117/1 50/114/1
f 51/118/6 47/119/25 46/115/7
f 46/115/7 50/114/6 51/118/6
f 52/120/8 48/121/8 47/119/26
f 47/119/26 51/118/8 52/120/8
f 49/117/11 45/116/12 48/121/12
f 48/121/12 52/120/11 49/117/11
f 54/122/1 50/114/1 49/117/1
f 49/117/1 53/123/1 54/122/1
f 55/124/14 51/118/6 50/114/6
f 50/114/6 54/122/14 55/124/14
f 56/125/8 52/120/8 51/118/8
f 51/118/8 55/124/8 56/125/8
f 53/123/15 49/117/11 52/120/11
f 52/120/11 56/125/15 53/123/15
f 58/126/1 54/122/1 53/123/1
f 53/123/1 57/127/1 58/126/1
f 59/128/16 55/124/14 54/122/14
f 54/122/14 58/126/16 59/128/16
f 60/129/8 56/125/8 55/124/8
f 55/124/8 59/128/8 60/129/8
f 57/127/17 53/123/15 56/125/15
f 56/125/15 60/129/17 57/127/17
f 62/130/1 58/126/1 57/127/1
f 57/127/1 61/131/1 62/130/1
f 63/132/18 59/128/16 58/126/16
f 58/126/16 62/130/18 63/132/18
f 64/133/8 60/129/8 59/128/8
f 59/128/8 63/132/8 64/133/8
f 61/131/19 57/127/17 60/129/17
f 60/129/17 64/133/19 61/131/19
f 66/134/1 62/130/1 61/131/1
f 61/131/1 65/135/1 66/134/1
f 67/136/20 63/132/18 62/130/18
f 62/130/18 66/134/20 67/136/20
f 68/137/8 64/133/8 63/132/8
f 63/132/8 67/136/8 68/137/8
f 65/135/21 61/131/19 64/133/19
f 64/133/19 68/137/21 65/135/21
f 70/138/1 66/134/1 65/135/1
f 65/135/1 69/139/1 70/138/1
f 71/140/27 67/136/20 66/134/20
f 66/134/20 70/138/3 71/140/27
f 72/141/8 68/137/8 67/136/8
f 67/136/8 71/140/8 72/141/8
f 69/139/22 65/135/21 68/137/21
f 68/137/21 72/141/22 69/139/22
f 70/138/3 13/142/23 71/140/27
f 72/141/22 15/143/24 12/144/24
f 1/145/28 18/84/7 19/88/7
f 19/88/7 3/146/28 1/145/28
f 17/85/1 18/84/1 1/145/1
f 1/145/1 2/147/1 17/85/1
f 20/90/13 17/85/12 2/147/29
f 2/147/29 16/148/30 20/90/13
f 19/88/10 20/90/9 16/148/31
f 16/148/31 3/146/32 19/88/10
f 8/149/33 46/115/7 47/119/25
f 47/119/25 10/150/34 8/149/33
f 45/116/1 46/115/1 8/149/1
f 8/149/1 9/151/1 45/116/1
f 48/121/12 45/116/12 9/151/35
f 9/151/35 11/152/35 48/121/12
f 47/119/26 48/121/8 11/152/36
f 11/152/36 10/150/37 47/119/26
f 4/113/24 41/108/22 44/110/22
f 42/107/1 41/108/1 4/113/1
f 4/113/1 5/111/1 42/107/1
f 6/153/23 43/109/3 5/111/23
f 44/110/8 43/109/8 6/153/8
f 6/153/8 7/112/8 44/110/8
f 12/144/24 69/139/22 72/141/22
f 70/138/1 69/139/1 12/144/1
f 12/144/1 13/142/1 70/138/1
f 14/154/38 71/140/27 13/142/23
f 72/141/8 71/140/8 14/154/8
f 14/154/8 15/143/8 72/141/8
